<svg data-name="Calque 1" xmlns="http://www.w3.org/2000/svg" viewBox="0 0 74.41 64.87"><path fill="#E6E6E6" d="M39.33 53.45h2.66v3.71h-2.66zm0 8.75H38v2.67h3.99v-4h-2.66v1.33zm-11.05 0h4.86v2.66h-4.86zm-19.43 0h4.86v2.66H8.85zm9.72 0h4.86v2.66h-4.86zM2.66 60.87H0v4h4V62.2H2.66v-1.33zM0 31.72h2.66v4.86H0zm0 9.72h2.66v4.86H0zm0 9.72h2.66v4.86H0zm0-24.29h2.66v-1.33H4v-2.67H0v4zm8.49-4h4.5v2.66h-4.5z"/><path fill="#E6E6E6" d="M74.4 39.87a1.36 1.36 0 0 0-.92-1l-14.18-4.2V11.74a1.3 1.3 0 0 0-.39-.94L48.51.4a1.26 1.26 0 0 0-.93-.4H20.15a1.34 1.34 0 0 0-1.33 1.33v21.54h-1.33v2.67h1.33V48.4h20.51v1.34H42V48.4h9.48l2.92 8.92a1.36 1.36 0 0 0 .94.88 1.75 1.75 0 0 0 .32 0 1.38 1.38 0 0 0 .93-.37l5.59-5.38 5 5a1.34 1.34 0 0 0 1.89 0l4.26-4.26a1.33 1.33 0 0 0 .39-.94 1.3 1.3 0 0 0-.39-.94l-4.89-4.9 5.55-5.33a1.34 1.34 0 0 0 .41-1.21zM48.72 4.36l6.21 6.26h-6.21zm7.92 29.51l-8.53-2.55a1.33 1.33 0 0 0-1.64 1.69l4.15 12.73H21.48V2.67h24.58v9.25a1.34 1.34 0 0 0 1.34 1.33h9.25v20.62z"/><path fill="#E6E6E6" d="M51.54 17.62a1 1 0 0 1-1 1H27.07a1 1 0 1 1 0-2h23.47a1 1 0 0 1 1 1zm0 4.79a1 1 0 0 1-1 1H27.07a1 1 0 0 1-1-1 1 1 0 0 1 1-1h23.47a1 1 0 0 1 1 1zm0 4.84a1 1 0 0 1-1 1H27.07a1 1 0 0 1 0-2h23.47a1 1 0 0 1 1 1z"/></svg>